# xmcd CD database file
#
# Track frame offsets:
#	183
#	17443
#	27498
#	37620
#	48933
#	59845
#	71465
#	84373
#	98070
#	107758
#	118178
#	131228
#	144075
#	158093
#	165645
#	176558
#	190845
#	202963
#	215070
#	225345
#	245038
#	260460
#
# Disc length: 3591 seconds
#
# Revision: 0
# Processed by: cddbd v1.4PL0 Copyright (c) Steve Scherf et al.
# Submitted via: CDex 1.40Release
#
DISCID=2a0e0516
DTITLE=Various Artist - Country Gold - 90 Great Hits - Vol 1
DYEAR=1991
DGENRE=Country
TTITLE0=Tom T Hall - Old Dogs, Children and Watermelon Wine
TTITLE1=Connie Smith - Once A Day
TTITLE2=Barbara Mandrell - Release Me
TTITLE3=Billy Joe Royal - Your Cheatin' Heart
TTITLE4=Jeanne Pruett - Star Studded Nights
TTITLE5=Bobby Bare - Please Don't Tell Me How The Story Ends
TTITLE6=Freddy Fender - But I Do
TTITLE7=Barbara Fairchild - The Biggest Hurt
TTITLE8=Leroy Van Dyke - Walk On By
TTITLE9=Mel Street - Today I Started Loving You Again
TTITLE10=Patti Page - Born To Lose
TTITLE11=The Oak Ridge Boys - The Old Country Church
TTITLE12=Sandy Posey Dream Lover
TTITLE13=Stonewall Jackson - Mary Don't You Weep
TTITLE14=Cahrlie Rich - On My Knees
TTITLE15=Tommy Overstreet - Heaven Is Womans Love
TTITLE16=Stella Parton - Young Love
TTITLE17=Johnny Paycheck - Take This Job and Shove It
TTITLE18=Bobby G Rice - Sugar Shack
TTITLE19=Ferlin Husky - Just A Closer Walk With Thee
TTITLE20=Clarence carter - You Don't Have To Say You Love Me
TTITLE21=Hoyt Axton - Hush Hush Sweet Charlotte
EXTD=YEAR: 1991 ID3G: 2
EXTT0=
EXTT1=
EXTT2=
EXTT3=
EXTT4=
EXTT5=
EXTT6=
EXTT7=
EXTT8=
EXTT9=
EXTT10=
EXTT11=
EXTT12=
EXTT13=
EXTT14=
EXTT15=
EXTT16=
EXTT17=
EXTT18=
EXTT19=
EXTT20=
EXTT21=
PLAYORDER=
